<svg width="345" height="125" viewBox="0 0 345 125" fill="none" xmlns="http://www.w3.org/2000/svg">
<path d="M136.92 72.14C134.413 72.14 132.2 71.4333 130.28 70.02C128.36 68.6067 127.013 66.6067 126.24 64.02L131.32 62.02C131.72 63.54 132.4 64.7533 133.36 65.66C134.32 66.5667 135.52 67.02 136.96 67.02C138.16 67.02 139.187 66.7267 140.04 66.14C140.893 65.5267 141.32 64.6867 141.32 63.62C141.32 62.5533 140.907 61.6867 140.08 61.02C139.28 60.3267 137.84 59.5933 135.76 58.82L134 58.18C132.16 57.54 130.587 56.5667 129.28 55.26C127.973 53.9267 127.32 52.26 127.32 50.26C127.32 48.7667 127.707 47.4067 128.48 46.18C129.253 44.9533 130.347 43.9933 131.76 43.3C133.173 42.58 134.773 42.22 136.56 42.22C139.147 42.22 141.187 42.8333 142.68 44.06C144.173 45.26 145.2 46.6733 145.76 48.3L141 50.3C140.707 49.42 140.187 48.6867 139.44 48.1C138.72 47.4867 137.787 47.18 136.64 47.18C135.467 47.18 134.493 47.46 133.72 48.02C132.973 48.5533 132.6 49.26 132.6 50.14C132.6 50.9933 132.96 51.7267 133.68 52.34C134.4 52.9267 135.587 53.5 137.24 54.06L139.04 54.66C141.52 55.5133 143.413 56.6467 144.72 58.06C146.053 59.4467 146.72 61.2733 146.72 63.54C146.72 65.4067 146.24 66.9933 145.28 68.3C144.32 69.58 143.08 70.54 141.56 71.18C140.067 71.82 138.52 72.14 136.92 72.14ZM162.435 72.14C160.195 72.14 158.235 71.66 156.555 70.7C154.901 69.74 153.608 68.3533 152.675 66.54C151.768 64.7267 151.315 62.58 151.315 60.1V42.86H156.675V60.42C156.675 62.3933 157.168 63.9933 158.155 65.22C159.168 66.42 160.595 67.02 162.435 67.02C164.275 67.02 165.688 66.42 166.675 65.22C167.688 63.9933 168.195 62.3933 168.195 60.42V42.86H173.555V60.1C173.555 62.4733 173.101 64.5667 172.195 66.38C171.288 68.1933 169.995 69.6067 168.315 70.62C166.635 71.6333 164.675 72.14 162.435 72.14ZM179.608 42.86H190.048C191.915 42.86 193.568 43.2467 195.008 44.02C196.475 44.7933 197.608 45.8733 198.408 47.26C199.208 48.62 199.608 50.1667 199.608 51.9C199.608 53.74 199.021 55.38 197.848 56.82C196.701 58.2333 195.248 59.26 193.488 59.9L193.448 60.18L201.128 71.18V71.5H194.928L187.528 60.74H185.008V71.5H179.608V42.86ZM190.008 55.78C191.235 55.78 192.235 55.4067 193.008 54.66C193.781 53.9133 194.168 52.9667 194.168 51.82C194.168 50.7267 193.795 49.7933 193.048 49.02C192.328 48.2467 191.341 47.86 190.088 47.86H185.008V55.78H190.008ZM213 42.86H219.2L229.96 71.5H224L221.6 64.66H210.64L208.24 71.5H202.28L213 42.86ZM219.84 59.7L217.32 52.5L216.28 49.06H215.96L214.92 52.5L212.36 59.7H219.84ZM233.827 42.86H239.227V55.14H239.547L250.027 42.86H256.547V43.18L246.187 55.02L257.627 71.18V71.5H251.027L242.467 59.3L239.227 63.1V71.5H233.827V42.86ZM269.772 72.14C267.265 72.14 265.052 71.4333 263.132 70.02C261.212 68.6067 259.865 66.6067 259.092 64.02L264.172 62.02C264.572 63.54 265.252 64.7533 266.212 65.66C267.172 66.5667 268.372 67.02 269.812 67.02C271.012 67.02 272.038 66.7267 272.892 66.14C273.745 65.5267 274.172 64.6867 274.172 63.62C274.172 62.5533 273.758 61.6867 272.932 61.02C272.132 60.3267 270.692 59.5933 268.612 58.82L266.852 58.18C265.012 57.54 263.438 56.5667 262.132 55.26C260.825 53.9267 260.172 52.26 260.172 50.26C260.172 48.7667 260.558 47.4067 261.332 46.18C262.105 44.9533 263.198 43.9933 264.612 43.3C266.025 42.58 267.625 42.22 269.412 42.22C271.998 42.22 274.038 42.8333 275.532 44.06C277.025 45.26 278.052 46.6733 278.612 48.3L273.852 50.3C273.558 49.42 273.038 48.6867 272.292 48.1C271.572 47.4867 270.638 47.18 269.492 47.18C268.318 47.18 267.345 47.46 266.572 48.02C265.825 48.5533 265.452 49.26 265.452 50.14C265.452 50.9933 265.812 51.7267 266.532 52.34C267.252 52.9267 268.438 53.5 270.092 54.06L271.892 54.66C274.372 55.5133 276.265 56.6467 277.572 58.06C278.905 59.4467 279.572 61.2733 279.572 63.54C279.572 65.4067 279.092 66.9933 278.132 68.3C277.172 69.58 275.932 70.54 274.412 71.18C272.918 71.82 271.372 72.14 269.772 72.14ZM284.686 42.86H290.086V54.3H302.126V42.86H307.526V71.5H302.126V59.42H290.086V71.5H284.686V42.86ZM322.14 42.86H328.34L339.1 71.5H333.14L330.74 64.66H319.78L317.38 71.5H311.42L322.14 42.86ZM328.98 59.7L326.46 52.5L325.42 49.06H325.1L324.06 52.5L321.5 59.7H328.98Z" fill="white"/>
<path d="M136.92 72.14C134.413 72.14 132.2 71.4333 130.28 70.02C128.36 68.6067 127.013 66.6067 126.24 64.02L131.32 62.02C131.72 63.54 132.4 64.7533 133.36 65.66C134.32 66.5667 135.52 67.02 136.96 67.02C138.16 67.02 139.187 66.7267 140.04 66.14C140.893 65.5267 141.32 64.6867 141.32 63.62C141.32 62.5533 140.907 61.6867 140.08 61.02C139.28 60.3267 137.84 59.5933 135.76 58.82L134 58.18C132.16 57.54 130.587 56.5667 129.28 55.26C127.973 53.9267 127.32 52.26 127.32 50.26C127.32 48.7667 127.707 47.4067 128.48 46.18C129.253 44.9533 130.347 43.9933 131.76 43.3C133.173 42.58 134.773 42.22 136.56 42.22C139.147 42.22 141.187 42.8333 142.68 44.06C144.173 45.26 145.2 46.6733 145.76 48.3L141 50.3C140.707 49.42 140.187 48.6867 139.44 48.1C138.72 47.4867 137.787 47.18 136.64 47.18C135.467 47.18 134.493 47.46 133.72 48.02C132.973 48.5533 132.6 49.26 132.6 50.14C132.6 50.9933 132.96 51.7267 133.68 52.34C134.4 52.9267 135.587 53.5 137.24 54.06L139.04 54.66C141.52 55.5133 143.413 56.6467 144.72 58.06C146.053 59.4467 146.72 61.2733 146.72 63.54C146.72 65.4067 146.24 66.9933 145.28 68.3C144.32 69.58 143.08 70.54 141.56 71.18C140.067 71.82 138.52 72.14 136.92 72.14ZM162.435 72.14C160.195 72.14 158.235 71.66 156.555 70.7C154.901 69.74 153.608 68.3533 152.675 66.54C151.768 64.7267 151.315 62.58 151.315 60.1V42.86H156.675V60.42C156.675 62.3933 157.168 63.9933 158.155 65.22C159.168 66.42 160.595 67.02 162.435 67.02C164.275 67.02 165.688 66.42 166.675 65.22C167.688 63.9933 168.195 62.3933 168.195 60.42V42.86H173.555V60.1C173.555 62.4733 173.101 64.5667 172.195 66.38C171.288 68.1933 169.995 69.6067 168.315 70.62C166.635 71.6333 164.675 72.14 162.435 72.14ZM179.608 42.86H190.048C191.915 42.86 193.568 43.2467 195.008 44.02C196.475 44.7933 197.608 45.8733 198.408 47.26C199.208 48.62 199.608 50.1667 199.608 51.9C199.608 53.74 199.021 55.38 197.848 56.82C196.701 58.2333 195.248 59.26 193.488 59.9L193.448 60.18L201.128 71.18V71.5H194.928L187.528 60.74H185.008V71.5H179.608V42.86ZM190.008 55.78C191.235 55.78 192.235 55.4067 193.008 54.66C193.781 53.9133 194.168 52.9667 194.168 51.82C194.168 50.7267 193.795 49.7933 193.048 49.02C192.328 48.2467 191.341 47.86 190.088 47.86H185.008V55.78H190.008ZM213 42.86H219.2L229.96 71.5H224L221.6 64.66H210.64L208.24 71.5H202.28L213 42.86ZM219.84 59.7L217.32 52.5L216.28 49.06H215.96L214.92 52.5L212.36 59.7H219.84ZM233.827 42.86H239.227V55.14H239.547L250.027 42.86H256.547V43.18L246.187 55.02L257.627 71.18V71.5H251.027L242.467 59.3L239.227 63.1V71.5H233.827V42.86ZM269.772 72.14C267.265 72.14 265.052 71.4333 263.132 70.02C261.212 68.6067 259.865 66.6067 259.092 64.02L264.172 62.02C264.572 63.54 265.252 64.7533 266.212 65.66C267.172 66.5667 268.372 67.02 269.812 67.02C271.012 67.02 272.038 66.7267 272.892 66.14C273.745 65.5267 274.172 64.6867 274.172 63.62C274.172 62.5533 273.758 61.6867 272.932 61.02C272.132 60.3267 270.692 59.5933 268.612 58.82L266.852 58.18C265.012 57.54 263.438 56.5667 262.132 55.26C260.825 53.9267 260.172 52.26 260.172 50.26C260.172 48.7667 260.558 47.4067 261.332 46.18C262.105 44.9533 263.198 43.9933 264.612 43.3C266.025 42.58 267.625 42.22 269.412 42.22C271.998 42.22 274.038 42.8333 275.532 44.06C277.025 45.26 278.052 46.6733 278.612 48.3L273.852 50.3C273.558 49.42 273.038 48.6867 272.292 48.1C271.572 47.4867 270.638 47.18 269.492 47.18C268.318 47.18 267.345 47.46 266.572 48.02C265.825 48.5533 265.452 49.26 265.452 50.14C265.452 50.9933 265.812 51.7267 266.532 52.34C267.252 52.9267 268.438 53.5 270.092 54.06L271.892 54.66C274.372 55.5133 276.265 56.6467 277.572 58.06C278.905 59.4467 279.572 61.2733 279.572 63.54C279.572 65.4067 279.092 66.9933 278.132 68.3C277.172 69.58 275.932 70.54 274.412 71.18C272.918 71.82 271.372 72.14 269.772 72.14ZM284.686 42.86H290.086V54.3H302.126V42.86H307.526V71.5H302.126V59.42H290.086V71.5H284.686V42.86ZM322.14 42.86H328.34L339.1 71.5H333.14L330.74 64.66H319.78L317.38 71.5H311.42L322.14 42.86ZM328.98 59.7L326.46 52.5L325.42 49.06H325.1L324.06 52.5L321.5 59.7H328.98Z" fill="black"/>
<path d="M62.5 114.583C62.5 114.583 104.167 93.75 104.167 62.5V26.0417L62.5 10.4167L20.8333 26.0417V62.5C20.8333 93.75 62.5 114.583 62.5 114.583Z" stroke="black" stroke-width="3.75" stroke-linecap="round" stroke-linejoin="round"/>
<g clip-path="url(#clip0_8_2)">
<path d="M47.5 60.5894C47.5 60.5894 63.6812 70.6228 78.0164 60.5852" stroke="black" stroke-width="3.75" stroke-linecap="round" stroke-linejoin="round"/>
</g>
<path d="M129.48 99.006C128.584 99.006 127.763 98.734 127.016 98.19C126.269 97.646 125.757 96.8833 125.48 95.902L126.776 95.374C126.957 96.0567 127.293 96.6167 127.784 97.054C128.275 97.4913 128.851 97.71 129.512 97.71C130.173 97.71 130.733 97.534 131.192 97.182C131.651 96.8193 131.88 96.3287 131.88 95.71C131.88 95.1767 131.683 94.7393 131.288 94.398C130.904 94.046 130.269 93.7207 129.384 93.422L128.664 93.166C127.853 92.878 127.192 92.4993 126.68 92.03C126.168 91.5607 125.912 90.91 125.912 90.078C125.912 89.534 126.061 89.0327 126.36 88.574C126.659 88.1047 127.075 87.7313 127.608 87.454C128.141 87.1767 128.739 87.038 129.4 87.038C130.061 87.038 130.637 87.1607 131.128 87.406C131.619 87.6513 132.008 87.95 132.296 88.302C132.595 88.654 132.803 89.0007 132.92 89.342L131.64 89.886C131.533 89.4913 131.288 89.134 130.904 88.814C130.531 88.494 130.035 88.334 129.416 88.334C128.829 88.334 128.328 88.4993 127.912 88.83C127.496 89.1607 127.288 89.5767 127.288 90.078C127.288 90.526 127.464 90.894 127.816 91.182C128.168 91.4593 128.701 91.7207 129.416 91.966L130.168 92.222C131.139 92.574 131.896 93.0167 132.44 93.55C132.984 94.0727 133.256 94.7873 133.256 95.694C133.256 96.43 133.064 97.0487 132.68 97.55C132.307 98.0513 131.832 98.4193 131.256 98.654C130.68 98.8887 130.088 99.006 129.48 99.006ZM137.707 98.878C137.376 98.878 137.067 98.8247 136.779 98.718C136.501 98.6113 136.267 98.4673 136.075 98.286C135.861 98.0833 135.701 97.8487 135.595 97.582C135.488 97.3153 135.435 96.99 135.435 96.606V91.822H134.011V90.59H135.435V88.286H136.795V90.59H138.779V91.822H136.795V96.27C136.795 96.718 136.88 97.0487 137.051 97.262C137.253 97.4967 137.547 97.614 137.931 97.614C138.24 97.614 138.539 97.5233 138.827 97.342V98.67C138.667 98.7447 138.501 98.798 138.331 98.83C138.171 98.862 137.963 98.878 137.707 98.878ZM142.882 99.006C142.284 99.006 141.751 98.8887 141.282 98.654C140.812 98.4193 140.45 98.0993 140.194 97.694C139.938 97.278 139.81 96.8087 139.81 96.286C139.81 95.422 140.135 94.75 140.786 94.27C141.436 93.7793 142.258 93.534 143.25 93.534C143.74 93.534 144.194 93.5873 144.61 93.694C145.036 93.8007 145.362 93.9233 145.586 94.062V93.566C145.586 92.958 145.372 92.4727 144.946 92.11C144.519 91.7367 143.98 91.55 143.33 91.55C142.871 91.55 142.45 91.6513 142.066 91.854C141.682 92.046 141.378 92.318 141.154 92.67L140.13 91.902C140.45 91.4113 140.887 91.0273 141.442 90.75C142.007 90.4727 142.631 90.334 143.314 90.334C144.423 90.334 145.292 90.6273 145.922 91.214C146.562 91.79 146.882 92.5793 146.882 93.582V98.75H145.586V97.582H145.522C145.287 97.9767 144.935 98.3127 144.466 98.59C143.996 98.8673 143.468 99.006 142.882 99.006ZM143.01 97.806C143.468 97.806 143.895 97.6887 144.29 97.454C144.684 97.2193 144.999 96.9047 145.234 96.51C145.468 96.1153 145.586 95.6833 145.586 95.214C145.33 95.0433 145.015 94.9047 144.642 94.798C144.268 94.6913 143.874 94.638 143.458 94.638C142.711 94.638 142.146 94.7927 141.762 95.102C141.388 95.4113 141.202 95.8113 141.202 96.302C141.202 96.75 141.372 97.1127 141.714 97.39C142.055 97.6673 142.487 97.806 143.01 97.806ZM151.113 98.238L147.737 90.59H149.209L151.769 96.654H151.801L154.265 90.59H155.737L150.697 102.206H149.289L151.113 98.238ZM164.346 99.006C163.546 99.006 162.826 98.814 162.186 98.43C161.546 98.046 161.045 97.5233 160.682 96.862C160.33 96.2007 160.154 95.47 160.154 94.67C160.154 93.87 160.33 93.1393 160.682 92.478C161.045 91.8167 161.546 91.294 162.186 90.91C162.826 90.526 163.546 90.334 164.346 90.334C165.146 90.334 165.866 90.526 166.506 90.91C167.146 91.294 167.642 91.8167 167.994 92.478C168.357 93.1393 168.538 93.87 168.538 94.67C168.538 95.47 168.357 96.2007 167.994 96.862C167.642 97.5233 167.146 98.046 166.506 98.43C165.866 98.814 165.146 99.006 164.346 99.006ZM164.346 97.774C164.847 97.774 165.311 97.6513 165.738 97.406C166.175 97.15 166.522 96.7873 166.778 96.318C167.045 95.8487 167.178 95.2993 167.178 94.67C167.178 94.0407 167.045 93.4913 166.778 93.022C166.522 92.5527 166.175 92.1953 165.738 91.95C165.311 91.694 164.847 91.566 164.346 91.566C163.845 91.566 163.375 91.694 162.938 91.95C162.501 92.1953 162.149 92.5527 161.882 93.022C161.626 93.4913 161.498 94.0407 161.498 94.67C161.498 95.2993 161.626 95.8487 161.882 96.318C162.149 96.7873 162.501 97.15 162.938 97.406C163.375 97.6513 163.845 97.774 164.346 97.774ZM169.961 90.59H171.257V91.79H171.321C171.545 91.3847 171.902 91.0433 172.393 90.766C172.884 90.478 173.406 90.334 173.961 90.334C174.942 90.334 175.689 90.622 176.201 91.198C176.724 91.7633 176.985 92.5367 176.985 93.518V98.75H175.625V93.726C175.625 92.9687 175.444 92.4193 175.081 92.078C174.718 91.7367 174.222 91.566 173.593 91.566C173.156 91.566 172.761 91.6887 172.409 91.934C172.068 92.1793 171.801 92.5047 171.609 92.91C171.417 93.3047 171.321 93.7207 171.321 94.158V98.75H169.961V90.59ZM182.562 99.006C181.783 99.006 181.085 98.8193 180.466 98.446C179.847 98.0727 179.362 97.5607 179.01 96.91C178.669 96.2487 178.498 95.5073 178.498 94.686C178.498 93.8967 178.658 93.1713 178.978 92.51C179.309 91.8487 179.773 91.3207 180.37 90.926C180.967 90.5313 181.661 90.334 182.45 90.334C183.25 90.334 183.943 90.5153 184.53 90.878C185.117 91.23 185.565 91.7207 185.874 92.35C186.194 92.9793 186.354 93.6993 186.354 94.51C186.354 94.67 186.338 94.8087 186.306 94.926H179.858C179.89 95.5447 180.039 96.0673 180.306 96.494C180.573 96.9207 180.909 97.2407 181.314 97.454C181.73 97.6673 182.162 97.774 182.61 97.774C183.655 97.774 184.461 97.2833 185.026 96.302L186.178 96.862C185.826 97.5233 185.346 98.046 184.738 98.43C184.141 98.814 183.415 99.006 182.562 99.006ZM184.914 93.806C184.893 93.4647 184.797 93.1233 184.626 92.782C184.455 92.4407 184.183 92.1527 183.81 91.918C183.447 91.6833 182.989 91.566 182.434 91.566C181.794 91.566 181.25 91.774 180.802 92.19C180.365 92.5953 180.077 93.134 179.938 93.806H184.914ZM194.512 99.006C193.638 99.006 192.907 98.8033 192.32 98.398C191.734 97.982 191.318 97.454 191.072 96.814L192.288 96.27C192.491 96.7607 192.79 97.1393 193.184 97.406C193.59 97.6727 194.032 97.806 194.512 97.806C195.024 97.806 195.462 97.7047 195.824 97.502C196.187 97.2887 196.368 96.99 196.368 96.606C196.368 96.2647 196.224 95.9927 195.936 95.79C195.648 95.5767 195.195 95.3953 194.576 95.246L193.584 94.99C192.934 94.83 192.4 94.558 191.984 94.174C191.568 93.79 191.36 93.294 191.36 92.686C191.36 92.2167 191.499 91.806 191.776 91.454C192.064 91.0913 192.443 90.814 192.912 90.622C193.382 90.43 193.888 90.334 194.432 90.334C195.147 90.334 195.782 90.4887 196.336 90.798C196.902 91.1073 197.302 91.5393 197.536 92.094L196.352 92.638C195.99 91.9127 195.344 91.55 194.416 91.55C193.968 91.55 193.574 91.6567 193.232 91.87C192.902 92.0727 192.736 92.334 192.736 92.654C192.736 92.9527 192.854 93.198 193.088 93.39C193.323 93.5713 193.675 93.7207 194.144 93.838L195.328 94.142C196.128 94.3447 196.731 94.6487 197.136 95.054C197.542 95.4487 197.744 95.934 197.744 96.51C197.744 97.0113 197.6 97.454 197.312 97.838C197.024 98.2113 196.635 98.4993 196.144 98.702C195.654 98.9047 195.11 99.006 194.512 99.006ZM202.285 98.878C201.954 98.878 201.645 98.8247 201.357 98.718C201.079 98.6113 200.845 98.4673 200.653 98.286C200.439 98.0833 200.279 97.8487 200.173 97.582C200.066 97.3153 200.013 96.99 200.013 96.606V91.822H198.589V90.59H200.013V88.286H201.373V90.59H203.357V91.822H201.373V96.27C201.373 96.718 201.458 97.0487 201.629 97.262C201.831 97.4967 202.125 97.614 202.509 97.614C202.818 97.614 203.117 97.5233 203.405 97.342V98.67C203.245 98.7447 203.079 98.798 202.909 98.83C202.749 98.862 202.541 98.878 202.285 98.878ZM208.281 99.006C207.502 99.006 206.803 98.8193 206.185 98.446C205.566 98.0727 205.081 97.5607 204.729 96.91C204.387 96.2487 204.217 95.5073 204.217 94.686C204.217 93.8967 204.377 93.1713 204.697 92.51C205.027 91.8487 205.491 91.3207 206.089 90.926C206.686 90.5313 207.379 90.334 208.169 90.334C208.969 90.334 209.662 90.5153 210.249 90.878C210.835 91.23 211.283 91.7207 211.593 92.35C211.913 92.9793 212.073 93.6993 212.073 94.51C212.073 94.67 212.057 94.8087 212.025 94.926H205.577C205.609 95.5447 205.758 96.0673 206.025 96.494C206.291 96.9207 206.627 97.2407 207.033 97.454C207.449 97.6673 207.881 97.774 208.329 97.774C209.374 97.774 210.179 97.2833 210.745 96.302L211.897 96.862C211.545 97.5233 211.065 98.046 210.457 98.43C209.859 98.814 209.134 99.006 208.281 99.006ZM210.633 93.806C210.611 93.4647 210.515 93.1233 210.345 92.782C210.174 92.4407 209.902 92.1527 209.529 91.918C209.166 91.6833 208.707 91.566 208.153 91.566C207.513 91.566 206.969 91.774 206.521 92.19C206.083 92.5953 205.795 93.134 205.657 93.806H210.633ZM213.6 90.59H214.896V91.806H214.96C215.206 91.39 215.574 91.0433 216.064 90.766C216.566 90.478 217.126 90.334 217.744 90.334C218.47 90.334 219.131 90.5207 219.728 90.894C220.326 91.2673 220.795 91.7847 221.136 92.446C221.478 93.1073 221.648 93.8487 221.648 94.67C221.648 95.502 221.478 96.2487 221.136 96.91C220.795 97.5607 220.326 98.0727 219.728 98.446C219.131 98.8193 218.47 99.006 217.744 99.006C217.126 99.006 216.566 98.8673 216.064 98.59C215.574 98.302 215.206 97.9553 214.96 97.55H214.896L214.96 98.67V102.206H213.6V90.59ZM217.584 97.774C218.054 97.774 218.496 97.646 218.912 97.39C219.328 97.134 219.659 96.7713 219.904 96.302C220.16 95.822 220.288 95.278 220.288 94.67C220.288 94.062 220.16 93.5233 219.904 93.054C219.659 92.574 219.328 92.206 218.912 91.95C218.496 91.694 218.054 91.566 217.584 91.566C217.115 91.566 216.672 91.694 216.256 91.95C215.84 92.206 215.51 92.5687 215.264 93.038C215.019 93.5073 214.896 94.0513 214.896 94.67C214.896 95.2887 215.019 95.8327 215.264 96.302C215.51 96.7713 215.84 97.134 216.256 97.39C216.672 97.646 217.115 97.774 217.584 97.774ZM229.554 99.006C228.956 99.006 228.423 98.8887 227.954 98.654C227.484 98.4193 227.122 98.0993 226.866 97.694C226.61 97.278 226.482 96.8087 226.482 96.286C226.482 95.422 226.807 94.75 227.458 94.27C228.108 93.7793 228.93 93.534 229.922 93.534C230.412 93.534 230.866 93.5873 231.282 93.694C231.708 93.8007 232.034 93.9233 232.258 94.062V93.566C232.258 92.958 232.044 92.4727 231.618 92.11C231.191 91.7367 230.652 91.55 230.002 91.55C229.543 91.55 229.122 91.6513 228.738 91.854C228.354 92.046 228.05 92.318 227.826 92.67L226.802 91.902C227.122 91.4113 227.559 91.0273 228.114 90.75C228.679 90.4727 229.303 90.334 229.986 90.334C231.095 90.334 231.964 90.6273 232.594 91.214C233.234 91.79 233.554 92.5793 233.554 93.582V98.75H232.258V97.582H232.194C231.959 97.9767 231.607 98.3127 231.138 98.59C230.668 98.8673 230.14 99.006 229.554 99.006ZM229.682 97.806C230.14 97.806 230.567 97.6887 230.962 97.454C231.356 97.2193 231.671 96.9047 231.906 96.51C232.14 96.1153 232.258 95.6833 232.258 95.214C232.002 95.0433 231.687 94.9047 231.314 94.798C230.94 94.6913 230.546 94.638 230.13 94.638C229.383 94.638 228.818 94.7927 228.434 95.102C228.06 95.4113 227.874 95.8113 227.874 96.302C227.874 96.75 228.044 97.1127 228.386 97.39C228.727 97.6673 229.159 97.806 229.682 97.806ZM235.446 87.294H236.806V90.67L236.742 91.79H236.806C237.03 91.374 237.382 91.0273 237.862 90.75C238.352 90.4727 238.886 90.334 239.462 90.334C240.454 90.334 241.211 90.6273 241.734 91.214C242.256 91.79 242.517 92.558 242.517 93.518V98.75H241.158V93.726C241.158 92.99 240.971 92.446 240.598 92.094C240.224 91.742 239.739 91.566 239.141 91.566C238.715 91.566 238.32 91.694 237.958 91.95C237.606 92.206 237.323 92.5367 237.11 92.942C236.907 93.3473 236.806 93.7687 236.806 94.206V98.75H235.446V87.294ZM248.109 99.006C247.33 99.006 246.631 98.8193 246.013 98.446C245.394 98.0727 244.909 97.5607 244.557 96.91C244.215 96.2487 244.045 95.5073 244.045 94.686C244.045 93.8967 244.205 93.1713 244.525 92.51C244.855 91.8487 245.319 91.3207 245.917 90.926C246.514 90.5313 247.207 90.334 247.997 90.334C248.797 90.334 249.49 90.5153 250.077 90.878C250.663 91.23 251.111 91.7207 251.421 92.35C251.741 92.9793 251.901 93.6993 251.901 94.51C251.901 94.67 251.885 94.8087 251.853 94.926H245.405C245.437 95.5447 245.586 96.0673 245.853 96.494C246.119 96.9207 246.455 97.2407 246.861 97.454C247.277 97.6673 247.709 97.774 248.157 97.774C249.202 97.774 250.007 97.2833 250.573 96.302L251.725 96.862C251.373 97.5233 250.893 98.046 250.285 98.43C249.687 98.814 248.962 99.006 248.109 99.006ZM250.461 93.806C250.439 93.4647 250.343 93.1233 250.173 92.782C250.002 92.4407 249.73 92.1527 249.357 91.918C248.994 91.6833 248.535 91.566 247.981 91.566C247.341 91.566 246.797 91.774 246.349 92.19C245.911 92.5953 245.623 93.134 245.485 93.806H250.461ZM256.179 99.006C255.581 99.006 255.048 98.8887 254.579 98.654C254.109 98.4193 253.747 98.0993 253.491 97.694C253.235 97.278 253.107 96.8087 253.107 96.286C253.107 95.422 253.432 94.75 254.083 94.27C254.733 93.7793 255.555 93.534 256.547 93.534C257.037 93.534 257.491 93.5873 257.907 93.694C258.333 93.8007 258.659 93.9233 258.883 94.062V93.566C258.883 92.958 258.669 92.4727 258.243 92.11C257.816 91.7367 257.277 91.55 256.627 91.55C256.168 91.55 255.747 91.6513 255.363 91.854C254.979 92.046 254.675 92.318 254.451 92.67L253.427 91.902C253.747 91.4113 254.184 91.0273 254.739 90.75C255.304 90.4727 255.928 90.334 256.611 90.334C257.72 90.334 258.589 90.6273 259.219 91.214C259.859 91.79 260.179 92.5793 260.179 93.582V98.75H258.883V97.582H258.819C258.584 97.9767 258.232 98.3127 257.763 98.59C257.293 98.8673 256.765 99.006 256.179 99.006ZM256.307 97.806C256.765 97.806 257.192 97.6887 257.587 97.454C257.981 97.2193 258.296 96.9047 258.531 96.51C258.765 96.1153 258.883 95.6833 258.883 95.214C258.627 95.0433 258.312 94.9047 257.939 94.798C257.565 94.6913 257.171 94.638 256.755 94.638C256.008 94.638 255.443 94.7927 255.059 95.102C254.685 95.4113 254.499 95.8113 254.499 96.302C254.499 96.75 254.669 97.1127 255.011 97.39C255.352 97.6673 255.784 97.806 256.307 97.806ZM265.448 99.006C264.723 99.006 264.062 98.8193 263.464 98.446C262.878 98.0727 262.414 97.5607 262.072 96.91C261.731 96.2487 261.56 95.502 261.56 94.67C261.56 93.8487 261.731 93.1073 262.072 92.446C262.414 91.7847 262.878 91.2673 263.464 90.894C264.062 90.5207 264.723 90.334 265.448 90.334C266.078 90.334 266.638 90.478 267.128 90.766C267.619 91.0433 267.992 91.39 268.248 91.806H268.312L268.248 90.67V87.294H269.608V98.75H268.312V97.55H268.248C267.992 97.9553 267.619 98.302 267.128 98.59C266.638 98.8673 266.078 99.006 265.448 99.006ZM265.608 97.774C266.088 97.774 266.531 97.646 266.936 97.39C267.352 97.134 267.683 96.7713 267.928 96.302C268.184 95.8327 268.312 95.2887 268.312 94.67C268.312 94.0513 268.184 93.5073 267.928 93.038C267.683 92.5687 267.352 92.206 266.936 91.95C266.531 91.694 266.088 91.566 265.608 91.566C265.139 91.566 264.696 91.694 264.28 91.95C263.864 92.206 263.528 92.574 263.272 93.054C263.027 93.5233 262.904 94.062 262.904 94.67C262.904 95.278 263.027 95.822 263.272 96.302C263.528 96.7713 263.864 97.134 264.28 97.39C264.696 97.646 265.139 97.774 265.608 97.774ZM279.096 99.006C278.296 99.006 277.576 98.814 276.936 98.43C276.296 98.046 275.795 97.5233 275.432 96.862C275.08 96.2007 274.904 95.47 274.904 94.67C274.904 93.87 275.08 93.1393 275.432 92.478C275.795 91.8167 276.296 91.294 276.936 90.91C277.576 90.526 278.296 90.334 279.096 90.334C279.896 90.334 280.616 90.526 281.256 90.91C281.896 91.294 282.392 91.8167 282.744 92.478C283.107 93.1393 283.288 93.87 283.288 94.67C283.288 95.47 283.107 96.2007 282.744 96.862C282.392 97.5233 281.896 98.046 281.256 98.43C280.616 98.814 279.896 99.006 279.096 99.006ZM279.096 97.774C279.597 97.774 280.061 97.6513 280.488 97.406C280.925 97.15 281.272 96.7873 281.528 96.318C281.795 95.8487 281.928 95.2993 281.928 94.67C281.928 94.0407 281.795 93.4913 281.528 93.022C281.272 92.5527 280.925 92.1953 280.488 91.95C280.061 91.694 279.597 91.566 279.096 91.566C278.595 91.566 278.125 91.694 277.688 91.95C277.251 92.1953 276.899 92.5527 276.632 93.022C276.376 93.4913 276.248 94.0407 276.248 94.67C276.248 95.2993 276.376 95.8487 276.632 96.318C276.899 96.7873 277.251 97.15 277.688 97.406C278.125 97.6513 278.595 97.774 279.096 97.774ZM285.577 91.822H284.073V90.59H285.577V89.71C285.577 89.198 285.694 88.75 285.929 88.366C286.164 87.982 286.478 87.6887 286.873 87.486C287.268 87.2727 287.705 87.166 288.185 87.166C288.644 87.166 289.044 87.23 289.385 87.358V88.686C289.193 88.6113 289.012 88.5527 288.841 88.51C288.67 88.4567 288.468 88.43 288.233 88.43C287.881 88.43 287.577 88.558 287.321 88.814C287.065 89.0593 286.937 89.406 286.937 89.854V90.59H289.033V91.822H286.937V98.75H285.577V91.822ZM297.87 99.006C297.145 99.006 296.484 98.8193 295.886 98.446C295.3 98.0727 294.836 97.5607 294.494 96.91C294.153 96.2487 293.982 95.502 293.982 94.67C293.982 93.8487 294.153 93.1073 294.494 92.446C294.836 91.7847 295.3 91.2673 295.886 90.894C296.484 90.5207 297.145 90.334 297.87 90.334C298.5 90.334 299.06 90.478 299.55 90.766C300.041 91.0433 300.414 91.39 300.67 91.806H300.734L300.67 90.67V87.294H302.03V98.75H300.734V97.55H300.67C300.414 97.9553 300.041 98.302 299.55 98.59C299.06 98.8673 298.5 99.006 297.87 99.006ZM298.03 97.774C298.51 97.774 298.953 97.646 299.358 97.39C299.774 97.134 300.105 96.7713 300.35 96.302C300.606 95.8327 300.734 95.2887 300.734 94.67C300.734 94.0513 300.606 93.5073 300.35 93.038C300.105 92.5687 299.774 92.206 299.358 91.95C298.953 91.694 298.51 91.566 298.03 91.566C297.561 91.566 297.118 91.694 296.702 91.95C296.286 92.206 295.95 92.574 295.694 93.054C295.449 93.5233 295.326 94.062 295.326 94.67C295.326 95.278 295.449 95.822 295.694 96.302C295.95 96.7713 296.286 97.134 296.702 97.39C297.118 97.646 297.561 97.774 298.03 97.774ZM306.569 99.006C305.972 99.006 305.438 98.8887 304.969 98.654C304.5 98.4193 304.137 98.0993 303.881 97.694C303.625 97.278 303.497 96.8087 303.497 96.286C303.497 95.422 303.822 94.75 304.473 94.27C305.124 93.7793 305.945 93.534 306.937 93.534C307.428 93.534 307.881 93.5873 308.297 93.694C308.724 93.8007 309.049 93.9233 309.273 94.062V93.566C309.273 92.958 309.06 92.4727 308.633 92.11C308.206 91.7367 307.668 91.55 307.017 91.55C306.558 91.55 306.137 91.6513 305.753 91.854C305.369 92.046 305.065 92.318 304.841 92.67L303.817 91.902C304.137 91.4113 304.574 91.0273 305.129 90.75C305.694 90.4727 306.318 90.334 307.001 90.334C308.11 90.334 308.98 90.6273 309.609 91.214C310.249 91.79 310.569 92.5793 310.569 93.582V98.75H309.273V97.582H309.209C308.974 97.9767 308.622 98.3127 308.153 98.59C307.684 98.8673 307.156 99.006 306.569 99.006ZM306.697 97.806C307.156 97.806 307.582 97.6887 307.977 97.454C308.372 97.2193 308.686 96.9047 308.921 96.51C309.156 96.1153 309.273 95.6833 309.273 95.214C309.017 95.0433 308.702 94.9047 308.329 94.798C307.956 94.6913 307.561 94.638 307.145 94.638C306.398 94.638 305.833 94.7927 305.449 95.102C305.076 95.4113 304.889 95.8113 304.889 96.302C304.889 96.75 305.06 97.1127 305.401 97.39C305.742 97.6673 306.174 97.806 306.697 97.806ZM312.461 90.59H313.757V91.79H313.821C314.045 91.3847 314.402 91.0433 314.893 90.766C315.384 90.478 315.906 90.334 316.461 90.334C317.442 90.334 318.189 90.622 318.701 91.198C319.224 91.7633 319.485 92.5367 319.485 93.518V98.75H318.125V93.726C318.125 92.9687 317.944 92.4193 317.581 92.078C317.218 91.7367 316.722 91.566 316.093 91.566C315.656 91.566 315.261 91.6887 314.909 91.934C314.568 92.1793 314.301 92.5047 314.109 92.91C313.917 93.3047 313.821 93.7207 313.821 94.158V98.75H312.461V90.59ZM324.936 102.462C323.976 102.462 323.181 102.238 322.552 101.79C321.933 101.342 321.517 100.803 321.304 100.174L322.536 99.646C322.717 100.115 323.016 100.494 323.432 100.782C323.858 101.081 324.36 101.23 324.936 101.23C325.778 101.23 326.429 100.985 326.888 100.494C327.357 100.003 327.592 99.31 327.592 98.414V97.502H327.528C327.261 97.918 326.882 98.2593 326.392 98.526C325.912 98.782 325.362 98.91 324.744 98.91C324.04 98.91 323.394 98.7287 322.808 98.366C322.232 98.0033 321.773 97.4967 321.432 96.846C321.09 96.1953 320.92 95.454 320.92 94.622C320.92 93.8007 321.09 93.0647 321.432 92.414C321.773 91.7527 322.232 91.2407 322.808 90.878C323.394 90.5153 324.04 90.334 324.744 90.334C325.362 90.334 325.912 90.4673 326.392 90.734C326.882 90.99 327.261 91.3313 327.528 91.758H327.592V90.59H328.888V98.43C328.888 99.742 328.525 100.739 327.8 101.422C327.074 102.115 326.12 102.462 324.936 102.462ZM324.936 97.678C325.426 97.678 325.869 97.5553 326.264 97.31C326.669 97.0647 326.989 96.7127 327.224 96.254C327.469 95.7953 327.592 95.2513 327.592 94.622C327.592 93.982 327.469 93.4327 327.224 92.974C326.989 92.5153 326.669 92.1687 326.264 91.934C325.869 91.6887 325.426 91.566 324.936 91.566C324.445 91.566 323.997 91.6887 323.592 91.934C323.186 92.1793 322.861 92.5313 322.616 92.99C322.381 93.4487 322.264 93.9927 322.264 94.622C322.264 95.2513 322.381 95.8007 322.616 96.27C322.861 96.7287 323.186 97.0807 323.592 97.326C323.997 97.5607 324.445 97.678 324.936 97.678ZM334.453 99.006C333.674 99.006 332.975 98.8193 332.357 98.446C331.738 98.0727 331.253 97.5607 330.901 96.91C330.559 96.2487 330.389 95.5073 330.389 94.686C330.389 93.8967 330.549 93.1713 330.868 92.51C331.199 91.8487 331.663 91.3207 332.261 90.926C332.858 90.5313 333.551 90.334 334.341 90.334C335.141 90.334 335.834 90.5153 336.421 90.878C337.007 91.23 337.455 91.7207 337.765 92.35C338.085 92.9793 338.245 93.6993 338.245 94.51C338.245 94.67 338.229 94.8087 338.197 94.926H331.749C331.781 95.5447 331.93 96.0673 332.197 96.494C332.463 96.9207 332.799 97.2407 333.205 97.454C333.621 97.6673 334.053 97.774 334.501 97.774C335.546 97.774 336.351 97.2833 336.917 96.302L338.069 96.862C337.717 97.5233 337.237 98.046 336.629 98.43C336.031 98.814 335.306 99.006 334.453 99.006ZM336.805 93.806C336.783 93.4647 336.687 93.1233 336.517 92.782C336.346 92.4407 336.074 92.1527 335.701 91.918C335.338 91.6833 334.879 91.566 334.325 91.566C333.685 91.566 333.141 91.774 332.693 92.19C332.255 92.5953 331.967 93.134 331.829 93.806H336.805ZM339.836 90.59H341.132V91.902H341.196C341.356 91.454 341.665 91.086 342.124 90.798C342.583 90.4993 343.063 90.35 343.564 90.35C343.937 90.35 344.257 90.4033 344.524 90.51V91.982C344.183 91.8113 343.799 91.726 343.372 91.726C342.977 91.726 342.615 91.838 342.284 92.062C341.953 92.286 341.687 92.59 341.484 92.974C341.292 93.3473 341.196 93.7527 341.196 94.19V98.75H339.836V90.59Z" fill="black"/>
<defs>
<clipPath id="clip0_8_2">
<rect width="60" height="60" fill="white" transform="translate(32.5 11.25)"/>
</clipPath>
</defs>
</svg>
